<?xml version="1.0" encoding="UTF-8"?>
<svg viewBox="0 0 85.969 77.875" xmlns="http://www.w3.org/2000/svg">
<metadata>
<x:xmpmeta x:xmptk="Adobe XMP Core 5.6-c142 79.160924, 2017/07/13-01:06:39        " xmlns:x="adobe:ns:meta/">
<rdf:RDF xmlns:rdf="http://www.w3.org/1999/02/22-rdf-syntax-ns#">
<rdf:Description rdf:about=""/>
</rdf:RDF>
</x:xmpmeta>
</metadata>
<defs>
<style>.cls-1 {
        fill: #fff;
        fill-rule: evenodd;
        filter: url(#a);
      }</style>
<filter id="a" x="564.34" y="141.12" width="85.969" height="77.875" filterUnits="userSpaceOnUse">
<feOffset dy="1" in="SourceAlpha" result="offset"/>
<feGaussianBlur result="blur"/>
<feFlood flood-color="#7558f8" flood-opacity=".75" result="flood"/>
<feComposite in2="blur" operator="in" result="composite"/>
<feBlend in="SourceGraphic" result="blend"/>
</filter>
</defs>
<path class="cls-1" transform="translate(-564.34 -141.12)" d="m647.11 182.52h-6.368a3.184 3.184 0 0 1 0-6.367h6.368a3.184 3.184 0 1 1 0 6.367zm-12.513-21.194a3.184 3.184 0 1 1-4.5-4.5l4.5-4.5a3.184 3.184 0 1 1 4.5 4.5zm-4.692 24.848a19.1 19.1 0 0 1-14.637 31.369h-25.471a25.471 25.471 0 1 1 7.2-49.9 19.08 19.08 0 0 1 32.912 18.531zm-59.211 5.9a19.1 19.1 0 0 0 19.1 19.1h25.471a12.736 12.736 0 1 0-6.9-23.416 19.081 19.081 0 0 0-37.668 4.314zm41.39-25.471a12.692 12.692 0 0 0-9.016 3.742 25.607 25.607 0 0 1 8.962 9.32 18.253 18.253 0 0 1 12.551 2.1 12.718 12.718 0 0 0-12.493-15.164zm0-12.735a3.184 3.184 0 0 1-3.184-3.184v-6.368a3.184 3.184 0 1 1 6.368 0v6.368a3.185 3.185 0 0 1-3.18 3.182zm-22.514 7.46-4.5-4.5a3.184 3.184 0 0 1 4.5-4.5l4.5 4.5a3.184 3.184 0 1 1-4.496 4.498z"/>
</svg>
