<?xml version="1.0" encoding="UTF-8"?>
<svg viewBox="0 0 89.906 76.937" xmlns="http://www.w3.org/2000/svg">
<metadata>
<x:xmpmeta x:xmptk="Adobe XMP Core 5.6-c142 79.160924, 2017/07/13-01:06:39        " xmlns:x="adobe:ns:meta/">
<rdf:RDF xmlns:rdf="http://www.w3.org/1999/02/22-rdf-syntax-ns#">
<rdf:Description rdf:about=""/>
</rdf:RDF>
</x:xmpmeta>
</metadata>
<defs>
<style>.cls-1 {
        fill: #fff;
        fill-rule: evenodd;
        filter: url(#a);
      }</style>
<filter id="a" x="151" y="141.06" width="89.906" height="76.937" filterUnits="userSpaceOnUse">
<feOffset dy="1" in="SourceAlpha" result="offset"/>
<feGaussianBlur result="blur"/>
<feFlood flood-color="#00c0e2" flood-opacity=".75" result="flood"/>
<feComposite in2="blur" operator="in" result="composite"/>
<feBlend in="SourceGraphic" result="blend"/>
</filter>
</defs>
<path class="cls-1" transform="translate(-151 -141.06)" d="m216.39 206.44h-2.043a18.384 18.384 0 0 0-1.928-8.172h3.971a16.345 16.345 0 1 0-8.855-30.052 24.492 24.492 0 1 0-27.869 29.692 18.364 18.364 0 0 0-2.067 7.942 32.681 32.681 0 1 1 34.636-48.025 24.488 24.488 0 1 1 4.155 48.615zm-20.431-14.444 7.223 7.224a10.215 10.215 0 1 1-14.447 0z" data-name="CR Alt"/>
</svg>
