<?xml version="1.0" encoding="UTF-8"?>
<svg viewBox="0 0 62.281 65.375" xmlns="http://www.w3.org/2000/svg">
<metadata>
<x:xmpmeta x:xmptk="Adobe XMP Core 5.6-c142 79.160924, 2017/07/13-01:06:39        " xmlns:x="adobe:ns:meta/">
<rdf:RDF xmlns:rdf="http://www.w3.org/1999/02/22-rdf-syntax-ns#">
<rdf:Description rdf:about=""/>
</rdf:RDF>
</x:xmpmeta>
</metadata>
<defs>
<style>.cls-1 {
        fill: #fff;
        fill-rule: evenodd;
        filter: url(#a);
      }</style>
<filter id="a" x="366.5" y="324.62" width="62.281" height="65.375" filterUnits="userSpaceOnUse">
<feOffset dy="1" in="SourceAlpha" result="offset"/>
<feGaussianBlur result="blur"/>
<feFlood flood-color="#e55679" flood-opacity=".75" result="flood"/>
<feComposite in2="blur" operator="in" result="composite"/>
<feBlend in="SourceGraphic" result="blend"/>
</filter>
</defs>
<path class="cls-1" transform="translate(-366.5 -324.62)" d="m422.71 374.15v0.06h-4.324a2.306 2.306 0 1 1 0-4.612h3.459a2.306 2.306 0 0 0 0-4.612 2.306 2.306 0 1 1 0.465-4.565 6.9 6.9 0 0 1 0.4 13.729zm-6.3-23h0.011a13.794 13.794 0 0 1 0.577 2.149 11.444 11.444 0 0 0-5.591-2.093c-0.011-0.02-0.025-0.037-0.037-0.056a9.182 9.182 0 0 0-12.977-3.123 13.82 13.82 0 0 0-27.287 3.123 13.836 13.836 0 0 0 13.836 13.836h25.366a2.306 2.306 0 1 0 0-4.612 2.306 2.306 0 1 1 0.465-4.565 6.9 6.9 0 0 1 0.4 13.729v0.06h-26.224a2.306 2.306 0 0 0 0 4.612h26.231v0.06a6.9 6.9 0 0 1-0.4 13.729 2.306 2.306 0 1 1-0.465-4.565 2.306 2.306 0 1 0 0-4.612h-26.23v-0.059a6.917 6.917 0 0 1-6.054-6.859 6.8 6.8 0 0 1 0.892-3.333 18.438 18.438 0 1 1 12.574-34.661 13.77 13.77 0 0 1 15.6-9.035 9.2 9.2 0 0 0 11.046 11.047 13.7 13.7 0 0 1-3.422 11.9 13.851 13.851 0 0 1 1.693 3.328zm-13.926-21.667a9.214 9.214 0 0 0-6.831 6.658 18.562 18.562 0 0 1 5.4 6.022 13.279 13.279 0 0 1 10.422 2.382 9.214 9.214 0 0 0 2.06-4.016 13.836 13.836 0 0 1-11.047-11.046z"/>
</svg>
